<svg xmlns="http://www.w3.org/2000/svg" data-name="Layer 1" viewBox="0 0 555 555">
<defs>
<style>.cls-1 {
        clip-path: url(#h);
      }

      .cls-2 {
        fill: none;
      }

      .cls-2, .cls-3, .cls-4, .cls-5, .cls-6 {
        stroke-width: 0px;
      }

      .cls-7 {
        mask: url(#c);
      }

      .cls-8 {
        clip-path: url(#g);
      }

      .cls-9 {
        clip-path: url(#d);
      }

      .cls-10 {
        clip-path: url(#e);
      }

      .cls-11 {
        clip-path: url(#f);
      }

      .cls-12 {
        isolation: isolate;
      }

      .cls-13 {
        mask: url(#a);
      }

      .cls-14 {
        mask: url(#b);
      }

      .cls-3 {
        fill: #3682ae;
      }

      .cls-4 {
        fill: #102036;
      }

      .cls-5 {
        fill: #a5b2ba;
      }

      .cls-6 {
        fill: #fff;
      }</style>
<clipPath id="h">
<rect class="cls-2" y="148.86" width="555" height="257.27"/>
</clipPath>
<clipPath id="g">
<rect class="cls-2" y="148.86" width="555" height="257.27"/>
</clipPath>
<mask id="c" x="0" y="148.86" width="555" height="257.27" maskUnits="userSpaceOnUse">
<rect class="cls-6" x="168.68" y="179.89" width="217.63" height="113.83"/>
</mask>
<clipPath id="f">
<rect class="cls-2" y="148.86" width="555" height="257.27"/>
</clipPath>
<mask id="b" x="0" y="148.86" width="555" height="257.27" maskUnits="userSpaceOnUse">
<rect class="cls-6" x="168.68" y="179.89" width="217.63" height="113.83"/>
</mask>
<clipPath id="e">
<rect class="cls-2" y="148.86" width="555" height="257.27"/>
</clipPath>
<mask id="a" x="0" y="148.86" width="555" height="257.27" maskUnits="userSpaceOnUse">
<rect class="cls-6" x="168.68" y="179.89" width="217.63" height="113.83"/>
</mask>
<clipPath id="d">
<rect class="cls-2" y="148.86" width="555" height="257.27"/>
</clipPath>
</defs>
<g class="cls-1">
<rect class="cls-6" width="555" height="555"/>
<path class="cls-4" d="m520.29 353.83v21.14h-1.27l-14.4-18.36v18.36h-1.54v-21.14h1.3l14.37 18.36v-18.36h1.54m-26.72 13.89-5.56-12.2-5.53 12.2h11.08m0.57 1.3h-12.26l-2.69 5.95h-1.66l9.72-21.14h1.54l9.72 21.14h-1.66l-2.72-5.95m-22.7-15.19h1.54v21.14h-1.54v-21.14m-19 19.9c-1.66-0.93-2.97-2.2-3.93-3.83s-1.43-3.46-1.43-5.5 0.48-3.87 1.43-5.5c0.96-1.63 2.26-2.91 3.93-3.83s3.53-1.39 5.6-1.39c1.53 0 2.94 0.25 4.23 0.74s2.39 1.22 3.29 2.19l-0.97 1c-1.69-1.67-3.86-2.51-6.49-2.51-1.77 0-3.38 0.4-4.83 1.21s-2.59 1.92-3.41 3.34c-0.83 1.42-1.24 3-1.24 4.76s0.41 3.34 1.24 4.76 1.96 2.53 3.41 3.34 3.06 1.21 4.83 1.21c2.62 0 4.78-0.85 6.49-2.54l0.97 1c-0.91 0.97-2.01 1.7-3.31 2.2s-2.7 0.75-4.21 0.75c-2.07 0-3.94-0.46-5.6-1.39m-12.96-19.9h1.54v21.14h-1.54v-21.14m-8.09 0v21.14h-1.27l-14.4-18.36v18.36h-1.54v-21.14h1.3l14.37 18.36v-18.36h1.54m-25.3 0v21.14h-1.54v-10.06h-14.13v10.06h-1.54v-21.14h1.54v9.72h14.13v-9.72h1.54m-36.21 19.9c-1.66-0.93-2.97-2.2-3.93-3.83s-1.43-3.46-1.43-5.5 0.48-3.87 1.43-5.5c0.96-1.63 2.26-2.91 3.93-3.83 1.66-0.93 3.53-1.39 5.6-1.39 1.53 0 2.94 0.25 4.23 0.74s2.39 1.22 3.29 2.19l-0.97 1c-1.69-1.67-3.85-2.51-6.49-2.51-1.77 0-3.38 0.4-4.83 1.21s-2.59 1.92-3.41 3.34c-0.83 1.42-1.24 3-1.24 4.76s0.41 3.34 1.24 4.76 1.96 2.53 3.41 3.34 3.06 1.21 4.83 1.21c2.62 0 4.78-0.85 6.49-2.54l0.97 1c-0.91 0.97-2.01 1.7-3.31 2.2s-2.7 0.75-4.21 0.75c-2.07 0-3.94-0.46-5.6-1.39m-9.55-0.15v1.39h-14.58v-21.14h14.13v1.39h-12.59v8.33h11.26v1.36h-11.26v8.67h13.04m-28.26-18.36h-7.61v-1.39h16.76v1.39h-7.61v19.75h-1.54v-19.75m-30.91-1.39h1.54v19.75h12.17v1.39h-13.71v-21.14m-9.51 13.89-5.56-12.2-5.53 12.2h11.08m0.57 1.3h-12.26l-2.69 5.95h-1.66l9.72-21.14h1.54l9.72 21.14h-1.66l-2.72-5.95m-25.69-13.8h-7.61v-1.39h16.76v1.39h-7.61v19.75h-1.54v-19.75m-12.13-1.39v21.14h-1.27l-14.4-18.36v18.36h-1.54v-21.14h1.3l14.37 18.36v-18.36h1.54m-23.55 19.75v1.39h-14.58v-21.14h14.13v1.39h-12.59v8.33h11.26v1.36h-11.26v8.67h13.04m-32 0c1.95 0 3.67-0.39 5.16-1.16 1.49-0.78 2.64-1.86 3.44-3.25 0.81-1.39 1.21-2.98 1.21-4.77s-0.4-3.38-1.21-4.77-1.95-2.47-3.44-3.25-3.21-1.16-5.16-1.16h-6.7v18.36h6.7m-8.24-19.75h8.36c2.19 0 4.14 0.45 5.84 1.36s3.02 2.16 3.97 3.76 1.42 3.42 1.42 5.45-0.47 3.85-1.42 5.45-2.27 2.85-3.97 3.76-3.65 1.36-5.84 1.36h-8.36v-21.14m-26.86 0h1.54v19.75h12.17v1.39h-13.71v-21.14m-9.51 13.89-5.56-12.2-5.53 12.2h11.08m0.57 1.3h-12.26l-2.69 5.95h-1.66l9.72-21.14h1.54l9.72 21.14h-1.66l-2.72-5.95m-31.5 4.71c-1.66-0.93-2.97-2.2-3.93-3.83s-1.43-3.46-1.43-5.5 0.48-3.87 1.43-5.5c0.96-1.63 2.26-2.91 3.93-3.83 1.66-0.93 3.53-1.39 5.6-1.39 1.53 0 2.94 0.25 4.23 0.74s2.39 1.22 3.29 2.19l-0.97 1c-1.69-1.67-3.86-2.51-6.49-2.51-1.77 0-3.38 0.4-4.83 1.21s-2.59 1.92-3.41 3.34c-0.83 1.42-1.24 3-1.24 4.76s0.41 3.34 1.24 4.76 1.96 2.53 3.41 3.34 3.06 1.21 4.83 1.21c2.62 0 4.78-0.85 6.49-2.54l0.97 1c-0.91 0.97-2.01 1.7-3.31 2.2s-2.7 0.75-4.21 0.75c-2.07 0-3.94-0.46-5.6-1.39m-12.96-19.9h1.54v21.14h-1.54v-21.14m-8.09 0v21.14h-1.27l-14.4-18.36v18.36h-1.54v-21.14h1.3l14.37 18.36v-18.36h1.54m-26.84 0h1.54v21.14h-1.54v-21.14m-18.38 0h1.54v19.75h12.17v1.39h-13.71v-21.14m-19 19.9c-1.66-0.93-2.97-2.2-3.93-3.83s-1.43-3.46-1.43-5.5 0.48-3.87 1.43-5.5c0.96-1.63 2.26-2.91 3.93-3.83 1.66-0.93 3.53-1.39 5.6-1.39 1.53 0 2.94 0.25 4.23 0.74s2.39 1.22 3.29 2.19l-0.97 1c-1.69-1.67-3.86-2.51-6.49-2.51-1.77 0-3.38 0.4-4.83 1.21s-2.59 1.92-3.41 3.34-1.24 3-1.24 4.76 0.41 3.34 1.24 4.76 1.96 2.53 3.41 3.34 3.06 1.21 4.83 1.21c2.62 0 4.78-0.85 6.49-2.54l0.97 1c-0.91 0.97-2.01 1.7-3.31 2.2s-2.7 0.75-4.21 0.75c-2.07 0-3.94-0.46-5.6-1.39m398.04-42.49c1.95 0 3.67-0.39 5.16-1.16 1.49-0.78 2.64-1.86 3.44-3.25 0.81-1.39 1.21-2.98 1.21-4.77s-0.4-3.38-1.21-4.77-1.95-2.47-3.44-3.25-3.21-1.16-5.16-1.16h-6.7v18.36h6.7m-8.24-19.75h8.36c2.19 0 4.14 0.45 5.84 1.36s3.02 2.16 3.97 3.76 1.42 3.42 1.42 5.45-0.47 3.85-1.42 5.45-2.27 2.85-3.97 3.76-3.65 1.36-5.84 1.36h-8.36v-21.14m-6.34 19.75v1.39h-14.58v-21.14h14.13v1.39h-12.59v8.33h11.26v1.36h-11.26v8.67h13.04m-20.92 0v1.39h-14.58v-21.14h14.13v1.39h-12.59v8.33h11.26v1.36h-11.26v8.67h13.04m-22.67-19.75v21.14h-1.54v-10.06h-14.13v10.06h-1.54v-21.14h1.54v9.72h14.13v-9.72h1.54m-26.17 10.66h1.48v7.91c-0.93 0.89-2.05 1.56-3.37 2.02s-2.71 0.69-4.18 0.69c-2.09 0-3.98-0.46-5.66-1.39s-3-2.2-3.96-3.83-1.43-3.46-1.43-5.5 0.48-3.87 1.43-5.5c0.96-1.63 2.27-2.91 3.96-3.83s3.58-1.39 5.69-1.39c1.55 0 2.97 0.25 4.27 0.74s2.41 1.21 3.34 2.16l-0.97 1.03c-0.89-0.89-1.88-1.52-2.97-1.92s-2.31-0.59-3.64-0.59c-1.81 0-3.45 0.4-4.91 1.21s-2.6 1.92-3.43 3.34-1.24 3-1.24 4.76 0.42 3.31 1.25 4.73c0.84 1.42 1.98 2.54 3.43 3.35 1.45 0.82 3.08 1.22 4.89 1.22 2.42 0 4.42-0.64 6.01-1.93v-7.28m-37.72 8.3c-1.48-1.55-2.22-3.81-2.22-6.79v-12.17h1.54v12.11c0 2.6 0.59 4.54 1.78 5.83s2.91 1.93 5.16 1.93 3.95-0.64 5.13-1.93c1.19-1.29 1.78-3.23 1.78-5.83v-12.11h1.54v12.17c0 2.98-0.74 5.24-2.23 6.79s-3.57 2.33-6.25 2.33-4.76-0.78-6.24-2.33m-14.29-0.3c1.43-0.81 2.56-1.92 3.38-3.34 0.83-1.42 1.24-3 1.24-4.76s-0.41-3.34-1.24-4.76-1.95-2.53-3.38-3.34-3.03-1.21-4.8-1.21-3.38 0.4-4.82 1.21-2.57 1.92-3.4 3.34-1.24 3-1.24 4.76 0.41 3.34 1.24 4.76 1.96 2.53 3.4 3.34 3.04 1.21 4.82 1.21 3.37-0.4 4.8-1.21m-10.42 1.22c-1.67-0.94-2.98-2.22-3.94-3.85s-1.43-3.45-1.43-5.47 0.48-3.83 1.43-5.47c0.96-1.63 2.27-2.91 3.94-3.85s3.54-1.4 5.62-1.4 3.95 0.46 5.62 1.39 2.98 2.2 3.94 3.83 1.43 3.46 1.43 5.5-0.48 3.87-1.43 5.5c-0.96 1.63-2.27 2.91-3.94 3.83-1.67 0.93-3.54 1.39-5.62 1.39s-3.95-0.47-5.62-1.4m-21.31-19.88h1.54v19.75h12.17v1.39h-13.71v-21.14m-14.09 0-7.16 21.14h-1.63l-6.55-18.96-6.58 18.96h-1.63l-7.19-21.14h1.63l6.43 19.02 6.61-19.02h1.48l6.58 19.05 6.49-19.05h1.51m-34.3 19.75v1.39h-14.58v-21.14h14.13v1.39h-12.59v8.33h11.26v1.36h-11.26v8.67h13.04m-29.46-6.88c2.25 0 3.98-0.5 5.16-1.49 1.19-1 1.78-2.41 1.78-4.24s-0.59-3.25-1.78-4.24c-1.19-1-2.91-1.49-5.16-1.49h-6.04v11.47h6.04m7.1 8.27-5.04-7.07c-0.74 0.1-1.43 0.15-2.05 0.15h-6.04v6.91h-1.54v-21.14h7.58c2.66 0 4.74 0.63 6.25 1.89s2.26 3 2.26 5.24c0 1.67-0.43 3.07-1.28 4.21-0.86 1.14-2.08 1.94-3.67 2.4l5.28 7.4h-1.75m-32.09-1.39c1.95 0 3.67-0.39 5.16-1.16 1.49-0.78 2.64-1.86 3.44-3.25 0.81-1.39 1.21-2.98 1.21-4.77s-0.4-3.38-1.21-4.77-1.95-2.47-3.44-3.25-3.21-1.16-5.16-1.16h-6.7v18.36h6.7m-8.24-19.75h8.36c2.19 0 4.14 0.45 5.84 1.36s3.02 2.16 3.97 3.76 1.42 3.42 1.42 5.45-0.47 3.85-1.42 5.45-2.27 2.85-3.97 3.76-3.65 1.36-5.84 1.36h-8.36v-21.14m-8.09 0v21.14h-1.27l-14.4-18.36v18.36h-1.54v-21.14h1.3l14.37 18.36v-18.36h1.54m-26.72 13.89-5.56-12.2-5.53 12.2h11.08m0.57 1.3h-12.26l-2.69 5.95h-1.66l9.72-21.14h1.54l9.72 21.14h-1.66l-2.72-5.95"/>
<g class="cls-8">
<g class="cls-7">
<g class="cls-12">
<g class="cls-11">
<path class="cls-5" d="m385.69,223.27c-.11-.4-.89-3.27-3.61-6.01-2.71-2.79-6.97-4.81-11.31-5.78-8.89-2.07-18.51,3.3-18.29,3.76.08.68,9.76-3.39,17.46-.74,3.81,1.23,7.36,3.36,9.15,5.53,1.86,2.17,2.26,4.17,2.36,4.49.15.21,1.7,5.2-1.08,13-2.75,7.46-8.28,17.63-10.71,28.59-1.42,5.63-1.22,11.27-1.33,16.36-.07,2.48.45,5.45-.7,6.87-.53.66-1.31.52-1.77.38-.92-.17-1.8-.63-2.59-1.15-3.87-3.01-6.18-7.93-7.91-11.3-1.48-3.04-2.42-6.26-5.13-9.89-.97-1.27-3.16-2.89-5.63-2.13-2.21.78-3.16,2.24-3.97,3.3-1.55,2.24-2.16,3.89-2.33,4.17-.15.27-1.69,4.36-3.4,10.15-.45,1.44-.93,2.99-1.51,4.52-.3.73-1.42,2.77-2.3,2.84-1.84.14-3.3-3.89-4.25-7.42-2.07-7.54-4.43-15.46-7.57-20.61-3-5.19-5.22-8.41-5.46-8.3-.64.43,7.72,13.78,10.12,29.72.52,1.96,1.05,3.94,1.98,5.93.73,1.79,2.94,4.59,6.09,4.12,2.84-.69,4.32-3.45,6.62-9.57,2.15-5.74,3.46-9.47,3.59-9.72.13-.23.65-1.86,1.69-3.68,1.34-1.98,2.01-3.19,4.15-1.21,3.12,3.17,4.03,5.46,5.81,8.57,1.63,3.04,4.15,7.68,8.4,11.93.88.66,1.89,1.28,3.13,1.61.6.21,1.27.24,1.95.27,1.02-.02,1.96-.93,2.17-1.57,1.13-2.67,1.04-5.11,1.29-7.72.34-5.14.4-10.63,1.89-15.66,2.75-10.56,8.25-19.87,11.54-28.06,3.33-8.22,1.77-15.25,1.47-15.57m-56.07-7.66c1.51.37,17.79,3.77,17.96,1.7-.07-.66-14.9-5.37-16.4-5.66-1.19-.35-4.45-1.13-8.73-1.03-4.56-.03-11.64,2.52-15,8.03-3.71,5.28-3.07,11.96-2.07,16.14,1.15,4.22,2.52,6.74,2.8,6.65.37-.11-.39-2.88-.92-7.02-.72-4.18-.35-9.63,3.02-13.76,7.13-8.44,17.38-5.4,19.36-5.05"/>
</g>
</g>
</g>
<g class="cls-14">
<g class="cls-12">
<g class="cls-10">
<path class="cls-3" d="m236.83,226.96c-2.88-1.32-4.85-.91-4.88-.65-.11.43,1.84.84,3.79,2.38,2.05,1.48,2.72,4.58,1.77,7.94-1.81,6.7-6.46,12.99-6.7,13.59-.61.89-2.79,4.33-6.81,11.12-4.01,6.63-6.68,17.16-7.78,26.5-.31,2.65-.94,2.15-1.89,1.15-1.11-1.41-1.79-3.77-2.35-5.89-1.07-4.27-1.86-8.93-4.45-12.08-1.16-1.55-3.08-2.89-5.07-2.52-1.89.54-2.67,1.95-3.17,2.91-.33.74-.81,2.18-1.19,3.66-.64,1.84-1.58,6.55-4.57,12.83-1.14,1.83-2.31,2.61-3.02,1.25-.94-1.55-1.27-4.22-1.51-6.76-.13-5.24-1.32-11.51-3.34-16.99-4.52-11.06-9.93-20.96-10.89-29.24-1.44-8.79,3.22-8.84,3.54-9.1.3-.07,2.13-.7,5.42-.8,3.25-.13,7.69.15,12.17.3,4.47.16,9.03,0,12.37-.73,3.36-.71,5.33-1.94,5.18-2.3-.3-.45-8.46.51-17.15-1.31-4.33-.69-8.81-1.45-12.52-1.64-3.7-.25-6.73.41-7.23.57-.17.23-2.42.28-5.16,3.19-2.89,3.03-3.16,8.22-2.24,12.75,1.48,9.42,7.82,19.9,12.43,29.89,2.17,5.26,3.48,10.32,3.99,15.83.5,2.73.77,5.42,2.54,8.06.81,1.42,3.38,2.3,4.9,1.28,1.49-.88,2.07-2.08,2.63-3.11,1.8-4.83,2.45-8.24,3.02-11.06.64-2.69,1.08-5.02,1.54-6.03.58-1.26,1.45-1.75,2.52-1.9,1.05-.07,2.27.78,3.16,2.19,1.93,2.8,2.39,6.89,3.23,11.51.52,2.3.86,4.72,2.56,7.27.86,1.22,2.67,2.73,5.11,1.9,2.23-1.02,2.6-2.95,3.03-4.15,1.76-10.08,4.42-18.8,8.39-25.03,3.83-5.97,6.37-9.67,7.11-10.82.53-1.04,4.66-7.43,5.85-15.67.81-4.02-1.14-9.13-4.35-10.3"/>
</g>
</g>
</g>
<g class="cls-13">
<g class="cls-12">
<g class="cls-9">
<path class="cls-4" d="m239.71,205.82c4.66-1.39,10.33-1.02,15.18-.47,4.89.64,9.47,2.17,13.87,2.96,8.83,1.59,15.09.32,15.51.3.92.05,9.46-2.66,17.33-3.89,3.48-.5,7.89.68,10.35,1.72,2.59,1.22,3.71,2.99,4.14,2.77.32-.07-.13-2.51-2.91-4.72-2.92-1.98-6.75-3.84-11.78-3.95-9.06.28-17.37,2.34-18.13,2.24-.32.01-5.69,1.28-13.61.16-7.8-1.36-19.62-4.76-31.3-1.07-6.02,2.19-9.96,7.1-12.29,12.16-2.09,5.37-1.55,10.55-.89,14.67,1.59,8.29,4.07,13.25,4.36,13.15.49-.13-1.25-5.42-2.08-13.45-.32-3.96-.35-8.81,1.64-13.03,2.16-4.05,5.98-8.23,10.61-9.52m77.89,19.61c-.72.13-1.01,7.52-4.81,14.02-3.45,6.52-12.92,16.91-19,38.12-1.5,5.23-3.4,12.46-6.93,11.4-1.89-.57-3.02-3.96-4.34-8.11-1.06-4.53-3.11-9.47-4.52-13.03-.73-1.78-1.49-3.41-2.68-4.68-1.47-2.27-5.01-2.48-6-1.14-1.51.94-3.02,3.02-3.96,6.22-1.7,6.43-2.45,8.86-4.34,14.89-1.13,3.02-1.98,5.66-4.52,6.53-1.06.61-3.39-.35-4.38-4.45-2.68-11.09-13.15-30.17-14.57-29.79,2.17,5.66,6.88,15.08,11.41,31.87.6,1.67,1.51,4.34,3.9,5.36,1.19.67,4.07.57,5.52-.46,3.24-2.46,3.77-5.47,4.9-8.3,1.51-5.09,2.37-10.34,3.77-14.89.94-3.02,2.07-4.9,3.21-5.09,2.07-.38,3.99,1.37,5.28,4.71,2.26,5.84,3.58,14.52,5.09,17.91,1.27,2.4,3.68,6.35,7.16,6.22,5.09-.19,7.21-9.94,8.58-14.14,6.51-19.99,15.47-27.67,19.52-37.9,3.23-7.61,2.44-15.57,1.7-15.27"/>
</g>
</g>
</g>
</g>
</g>
</svg>